<svg id="svg" version="1.1" width="475" height="475" viewBox="0 0 475 475" xmlns="http://www.w3.org/2000/svg"><path d="M234.500 14.163 C 232.300 15.304,229.765 16.882,228.866 17.669 C 227.670 18.717,225.905 18.924,222.275 18.442 C 216.429 17.667,212.241 19.403,208.830 24.017 C 207.616 25.657,205.696 27.002,204.562 27.004 C 201.318 27.010,196.117 30.687,195.418 33.469 C 194.628 36.617,194.274 36.618,191.806 33.480 C 186.185 26.334,176.754 26.256,170.175 33.300 C 168.235 35.376,167.201 35.702,163.943 35.266 C 158.426 34.526,154.268 36.554,151.937 41.123 C 150.861 43.232,148.648 45.648,147.020 46.490 C 143.858 48.125,142.023 50.736,141.963 53.684 C 141.918 55.967,134.739 60.523,129.793 61.410 C 126.091 62.074,122.000 65.866,122.000 68.635 C 122.000 70.462,121.133 70.362,116.500 68.000 C 111.505 65.453,107.954 65.473,102.854 68.074 C 100.008 69.526,98.295 71.304,97.144 73.999 C 95.908 76.894,94.771 77.995,92.566 78.437 C 88.096 79.331,86.000 81.773,86.000 86.088 C 86.000 88.990,85.536 90.013,83.995 90.502 C 82.892 90.852,80.642 92.272,78.995 93.658 C 74.690 97.280,74.839 102.039,79.400 106.600 C 82.002 109.202,83.641 110.000,86.384 110.000 C 88.931 110.000,90.913 110.844,93.234 112.917 C 95.029 114.522,96.274 116.003,95.999 116.208 C 95.725 116.413,93.813 117.823,91.750 119.341 L 88.000 122.102 84.716 119.597 C 80.146 116.111,74.103 115.307,68.514 117.442 C 64.085 119.133,59.000 123.956,59.000 126.465 C 59.000 127.187,57.375 128.082,55.388 128.455 C 50.213 129.426,47.000 132.999,47.000 137.786 C 47.000 140.965,46.520 141.917,44.331 143.081 C 39.583 145.605,36.000 151.674,36.000 157.190 C 36.000 170.177,47.514 178.919,57.815 173.753 C 59.882 172.717,60.409 172.949,62.736 175.921 C 65.567 179.539,71.991 182.943,76.054 182.978 C 79.788 183.010,88.780 178.216,91.248 174.878 L 93.382 171.992 95.941 174.382 C 104.740 182.600,115.389 182.663,123.506 174.547 L 127.835 170.218 130.373 172.867 C 131.769 174.324,134.862 178.321,137.248 181.748 C 142.113 188.739,146.669 192.521,152.236 194.189 C 154.306 194.809,156.000 195.663,156.000 196.086 C 156.000 196.991,151.078 201.000,149.966 201.000 C 148.345 201.000,138.516 193.707,138.804 192.718 C 138.971 192.145,138.556 190.343,137.882 188.715 C 136.680 185.814,131.992 183.000,128.361 183.000 C 127.424 183.000,125.826 182.247,124.809 181.327 C 123.075 179.757,122.721 179.788,119.094 181.827 C 112.904 185.306,104.177 184.647,99.487 180.346 C 94.470 175.745,94.588 175.750,90.221 179.905 C 81.323 188.369,71.159 188.609,63.397 180.538 C 59.573 176.562,59.131 176.362,56.897 177.601 C 52.913 179.808,46.741 179.313,42.518 176.447 C 39.752 174.571,38.013 174.058,35.951 174.511 C 32.825 175.197,28.526 179.081,26.451 183.094 C 25.428 185.074,24.042 185.898,20.890 186.402 C 15.537 187.258,9.000 193.379,9.000 197.536 C 9.000 199.487,7.816 201.400,5.000 204.000 C 0.538 208.119,-0.176 211.625,2.882 214.393 C 5.639 216.889,11.062 218.129,14.678 217.092 C 17.362 216.323,17.935 216.510,19.005 218.509 C 22.474 224.991,33.882 225.840,40.970 220.144 C 45.574 216.445,47.028 216.269,49.593 219.102 C 50.639 220.259,52.711 221.834,54.198 222.602 C 57.893 224.513,67.960 224.417,70.777 222.444 C 71.999 221.588,75.160 220.327,77.801 219.641 C 81.747 218.618,83.207 218.642,85.984 219.775 C 90.314 221.542,94.994 220.661,98.490 217.422 C 101.181 214.927,101.294 214.912,105.790 216.444 C 111.409 218.359,118.010 218.441,122.299 216.649 C 124.078 215.905,127.562 214.993,130.043 214.621 C 132.523 214.249,136.541 212.628,138.972 211.018 C 142.693 208.555,144.060 208.184,147.611 208.670 C 151.233 209.167,152.654 208.749,157.665 205.718 C 168.412 199.217,177.127 198.540,185.663 203.543 C 191.240 206.811,192.798 209.996,194.559 221.724 C 197.522 241.467,205.344 250.900,225.478 259.010 C 237.362 263.796,241.838 270.819,240.738 282.953 C 239.818 293.094,233.359 302.603,223.806 307.877 L 219.500 310.255 225.394 304.260 C 233.470 296.046,237.400 288.940,230.750 294.577 C 228.963 296.092,223.859 299.020,219.409 301.084 C 207.953 306.397,203.014 312.039,199.016 324.381 C 197.581 328.810,191.974 335.445,187.875 337.565 C 186.223 338.419,182.145 339.009,177.800 339.022 C 168.209 339.051,163.892 341.094,156.751 348.985 C 149.350 357.164,148.469 357.718,140.066 359.486 C 129.761 361.654,125.516 364.155,121.508 370.420 C 118.643 374.899,117.480 375.874,114.296 376.464 C 108.218 377.591,104.067 380.834,99.330 388.157 L 94.903 395.000 89.107 395.000 C 84.761 395.000,82.896 395.458,81.655 396.829 C 79.124 399.626,79.566 403.611,82.640 405.703 C 89.650 410.474,90.593 412.093,93.398 424.154 C 97.156 440.314,100.972 445.979,111.936 451.676 C 116.101 453.840,117.625 455.271,118.458 457.800 C 119.055 459.615,120.209 461.521,121.022 462.035 C 121.835 462.549,132.125 462.976,143.888 462.985 L 165.276 463.000 169.641 458.977 L 174.006 454.953 232.455 455.227 L 290.905 455.500 294.744 459.250 L 298.584 463.000 320.637 463.000 C 340.377 463.000,342.854 462.816,344.254 461.250 C 345.114 460.287,345.971 458.430,346.159 457.122 C 346.404 455.415,348.050 453.920,352.000 451.818 C 362.993 445.968,367.604 438.925,371.051 422.715 C 373.254 412.357,375.040 409.285,380.338 406.742 C 383.641 405.157,384.000 404.596,384.000 401.027 C 384.000 395.816,382.315 395.000,371.553 395.000 L 362.975 395.000 359.422 389.445 C 355.477 383.279,352.091 380.802,344.151 378.275 C 339.889 376.918,338.213 375.716,335.905 372.362 C 331.545 366.025,328.765 364.283,321.738 363.486 C 312.925 362.487,309.343 360.734,302.500 354.069 C 295.033 346.798,293.948 346.251,284.324 344.912 C 274.303 343.518,270.509 341.885,268.566 338.128 C 266.577 334.281,266.557 327.758,268.523 323.955 C 269.361 322.335,272.350 319.189,275.165 316.964 C 281.545 311.920,285.345 307.203,289.231 299.500 C 293.759 290.525,297.453 286.416,303.792 283.303 C 310.019 280.245,311.773 280.134,341.500 280.912 C 356.143 281.296,358.216 280.783,365.000 275.107 C 372.826 268.559,374.566 267.795,383.767 266.873 C 397.212 265.526,401.359 263.666,409.531 255.316 L 416.561 248.131 424.853 251.066 C 435.428 254.808,443.337 254.988,450.507 251.649 C 456.756 248.739,462.000 242.984,462.000 239.038 C 462.000 235.649,458.029 232.000,454.340 232.000 C 452.755 232.000,451.651 231.212,451.061 229.661 C 450.217 227.440,446.500 223.875,442.384 221.339 C 440.901 220.425,441.425 220.378,444.848 221.116 C 452.511 222.769,459.945 219.905,461.996 214.509 C 462.525 213.119,464.011 212.048,465.947 211.661 C 470.419 210.766,474.005 206.807,473.978 202.795 C 473.944 197.721,469.166 193.000,464.066 193.000 C 462.537 193.000,462.000 192.359,462.000 190.535 C 462.000 187.069,456.551 181.247,452.168 180.030 C 446.847 178.552,441.347 178.769,437.812 180.597 C 435.400 181.845,434.195 181.954,432.314 181.097 C 428.429 179.327,420.323 179.805,414.935 182.123 C 412.221 183.291,410.000 184.571,410.000 184.968 C 410.000 185.365,410.907 186.511,412.015 187.514 C 413.123 188.517,414.306 191.061,414.643 193.169 C 414.980 195.276,415.402 197.000,415.581 197.000 C 415.760 197.000,417.019 196.493,418.379 195.873 C 421.718 194.352,425.339 195.421,429.014 199.014 C 430.694 200.656,432.975 202.000,434.082 202.000 C 436.970 202.000,441.000 206.751,441.000 210.155 C 441.000 211.941,439.924 214.144,438.142 216.009 C 434.790 219.517,433.210 219.967,435.443 216.777 C 438.702 212.125,437.255 206.569,432.364 204.955 C 430.461 204.327,427.821 202.730,426.498 201.407 C 423.961 198.870,417.951 198.113,415.026 199.963 C 413.251 201.085,412.037 199.550,412.015 196.154 C 411.963 188.080,401.606 182.489,393.524 186.171 C 391.357 187.158,390.347 187.001,387.091 185.171 C 379.811 181.080,372.154 182.643,366.187 189.440 C 363.285 192.746,362.718 192.968,357.690 192.776 C 353.921 192.632,351.483 193.109,349.568 194.363 C 346.352 196.471,343.869 201.782,344.669 204.842 C 345.069 206.371,344.779 207.000,343.676 207.000 C 342.819 207.000,341.840 206.550,341.500 206.000 C 340.530 204.431,332.687 204.831,330.194 206.576 C 328.957 207.443,327.169 209.798,326.222 211.809 C 324.809 214.809,323.827 215.576,320.753 216.075 C 315.957 216.855,313.000 219.548,313.000 223.136 C 313.000 225.893,312.895 225.947,308.669 225.368 C 305.653 224.955,303.384 225.267,301.198 226.398 C 297.383 228.371,296.000 230.755,296.000 235.362 C 296.000 241.508,303.087 245.131,310.962 243.010 C 314.744 241.992,315.337 242.106,318.021 244.365 C 321.920 247.645,326.246 248.471,331.630 246.964 C 334.065 246.282,336.314 245.981,336.628 246.295 C 337.681 247.348,335.023 253.517,331.865 257.347 C 327.839 262.232,320.194 265.593,309.013 267.392 C 294.525 269.724,287.358 273.961,281.951 283.388 C 277.873 290.498,278.002 286.088,282.098 278.352 C 284.763 273.318,285.123 271.770,284.674 267.282 C 284.001 260.565,278.885 250.918,273.570 246.347 C 271.332 244.421,263.546 239.937,256.269 236.382 C 241.095 228.967,237.961 225.966,237.293 218.208 C 236.763 212.034,239.277 208.012,245.577 204.963 C 250.154 202.747,250.638 202.708,257.424 204.007 C 261.316 204.752,267.500 205.540,271.166 205.759 C 277.699 206.150,278.068 206.035,289.740 199.971 C 300.289 194.490,302.568 193.691,309.704 192.972 C 314.134 192.525,319.807 191.227,322.311 190.086 C 325.938 188.434,328.699 188.037,335.880 188.137 C 347.187 188.294,353.460 185.719,356.246 179.776 C 357.206 177.728,359.231 175.301,360.746 174.383 C 362.261 173.464,364.806 171.814,366.403 170.714 C 369.185 168.797,369.495 168.783,373.903 170.362 C 382.216 173.341,391.363 171.993,398.252 166.773 L 401.500 164.312 405.907 166.656 C 408.331 167.945,411.638 169.000,413.256 169.000 C 417.154 169.000,422.790 166.249,424.623 163.453 C 425.436 162.211,427.580 160.926,429.411 160.583 C 437.668 159.034,439.129 148.623,431.478 145.856 C 429.349 145.086,427.912 143.786,427.537 142.291 C 427.212 140.997,425.615 139.129,423.988 138.139 C 421.287 136.496,421.156 136.174,422.484 134.420 C 425.026 131.060,424.367 126.487,420.923 123.589 C 419.231 122.165,416.869 120.993,415.673 120.985 C 412.539 120.963,411.438 119.956,410.118 115.905 C 408.678 111.482,405.167 109.454,399.344 109.679 C 395.487 109.828,394.802 109.519,393.523 107.045 C 392.726 105.504,391.346 103.963,390.455 103.621 C 387.253 102.392,382.222 103.038,379.731 104.997 L 377.193 106.994 372.846 104.509 C 364.342 99.647,354.931 102.138,350.468 110.433 C 348.837 113.463,348.097 113.989,346.149 113.501 C 341.989 112.458,337.206 114.841,333.945 119.580 C 331.472 123.175,330.335 124.000,327.856 124.000 C 322.911 124.000,319.110 126.923,317.252 132.154 C 315.997 135.687,314.773 137.215,312.226 138.429 C 309.044 139.946,308.702 139.924,306.025 138.018 C 302.220 135.308,299.776 135.476,295.930 138.712 C 293.646 140.634,291.791 141.346,289.563 141.154 C 286.060 140.852,281.518 143.793,280.492 147.026 C 280.147 148.112,279.011 149.000,277.968 149.000 C 275.652 149.000,274.016 151.849,273.494 156.791 C 273.279 158.831,272.813 161.897,272.459 163.605 C 271.921 166.203,272.261 167.060,274.543 168.855 C 277.566 171.233,284.251 171.754,288.267 169.924 C 290.178 169.053,291.327 169.261,294.295 171.011 C 297.953 173.170,297.958 173.181,296.396 176.202 C 292.282 184.157,279.743 193.970,273.667 193.991 C 272.108 193.996,267.158 193.055,262.667 191.900 C 254.715 189.855,247.465 189.738,242.500 191.575 C 241.400 191.982,244.016 188.982,248.314 184.908 C 258.059 175.669,259.067 173.131,258.279 159.813 C 257.395 144.875,259.474 141.927,272.334 139.881 C 280.579 138.570,285.210 135.387,288.065 129.070 C 290.706 123.227,290.509 123.292,307.500 122.684 C 320.703 122.212,327.004 119.851,334.611 112.524 C 337.451 109.788,341.665 106.998,344.667 105.866 C 347.509 104.795,350.955 103.037,352.325 101.959 C 353.695 100.882,355.869 99.997,357.158 99.994 C 358.446 99.990,360.728 99.347,362.229 98.564 C 364.091 97.593,366.675 97.317,370.359 97.698 C 379.603 98.652,385.000 93.666,385.000 84.172 C 385.000 77.705,381.778 73.579,375.238 71.672 C 371.253 70.510,370.466 69.821,369.310 66.482 C 367.652 61.692,365.544 59.320,360.790 56.894 C 354.462 53.664,345.764 55.055,340.323 60.167 L 338.118 62.238 335.457 60.145 C 333.994 58.994,331.239 57.760,329.335 57.403 C 322.508 56.122,313.779 62.332,312.450 69.413 C 311.905 72.318,311.344 72.845,308.254 73.346 C 303.471 74.122,299.000 78.490,299.000 82.387 C 299.000 84.532,298.691 85.091,297.927 84.327 C 296.363 82.763,298.444 75.871,301.287 73.200 C 302.557 72.007,305.037 70.743,306.798 70.390 C 309.499 69.850,310.000 69.305,310.000 66.910 C 310.000 63.450,314.645 57.871,319.407 55.611 C 323.574 53.634,330.641 53.580,334.000 55.500 C 338.294 57.955,339.334 57.454,338.666 53.250 C 337.915 48.528,333.189 44.000,329.010 44.000 C 326.748 44.000,325.694 43.308,324.531 41.061 C 321.535 35.267,315.137 33.326,309.182 36.406 C 306.846 37.614,306.192 37.614,304.540 36.406 C 301.970 34.526,297.437 34.629,294.026 36.644 C 291.289 38.261,291.188 38.230,287.837 34.779 C 285.963 32.850,283.441 30.957,282.233 30.574 C 281.024 30.190,279.317 28.364,278.440 26.515 C 276.386 22.187,271.095 19.569,266.034 20.379 C 262.907 20.879,261.943 20.565,259.911 18.389 C 253.831 11.875,242.534 9.996,234.500 14.163 M219.740 77.459 C 223.650 79.280,225.744 81.103,227.990 84.645 C 229.645 87.256,231.000 90.027,231.000 90.803 C 231.000 91.758,231.565 91.978,232.750 91.484 C 238.594 89.046,239.964 88.771,243.208 89.379 C 247.249 90.137,251.458 93.083,253.136 96.328 C 254.109 98.209,253.873 98.140,251.380 95.814 C 245.956 90.754,240.700 89.839,234.684 92.906 L 230.945 94.812 229.064 91.156 C 221.734 76.908,203.214 74.754,192.786 86.937 C 189.189 91.139,189.178 91.143,186.141 89.573 C 184.468 88.708,181.922 88.000,180.484 88.000 C 175.233 88.000,169.347 92.634,168.437 97.486 C 167.844 100.646,167.833 100.651,162.465 100.206 C 157.523 99.796,156.840 100.006,154.043 102.803 C 152.360 104.486,151.000 105.250,151.000 104.512 C 151.000 102.833,156.593 98.057,158.827 97.829 C 159.747 97.735,161.591 97.622,162.924 97.579 C 164.721 97.520,165.549 96.751,166.126 94.604 C 168.055 87.430,176.444 82.966,184.115 85.031 C 188.127 86.111,188.313 86.049,191.496 82.574 C 198.506 74.921,209.868 72.863,219.740 77.459 M326.054 99.198 C 327.885 100.552,330.364 101.358,332.511 101.297 C 336.216 101.192,336.219 101.315,332.638 106.233 C 330.696 108.902,323.166 114.499,322.464 113.797 C 322.269 113.603,322.488 111.769,322.950 109.722 C 323.412 107.673,323.398 104.314,322.919 102.250 C 321.471 96.018,321.593 95.900,326.054 99.198 M348.752 98.250 C 348.255 99.746,343.318 101.651,342.377 100.710 C 342.013 100.346,342.284 99.362,342.980 98.524 C 344.520 96.669,349.353 96.439,348.752 98.250 M318.266 103.609 C 319.083 107.883,317.208 112.844,314.203 114.362 C 312.717 115.113,307.069 115.981,301.653 116.290 C 291.900 116.846,291.812 116.830,292.427 114.676 C 292.769 113.479,293.319 111.263,293.649 109.750 C 294.333 106.619,294.740 106.488,297.441 108.532 C 298.509 109.339,301.306 110.000,303.656 110.000 C 306.998 110.000,308.691 109.332,311.417 106.938 C 313.335 105.255,315.183 102.998,315.524 101.924 C 316.318 99.424,317.618 100.224,318.266 103.609 M103.440 110.623 C 108.082 113.217,113.284 113.546,118.122 111.553 C 119.312 111.062,120.268 111.895,121.714 114.681 C 123.080 117.313,124.659 118.758,126.859 119.389 C 128.606 119.889,130.285 120.049,130.591 119.743 C 130.897 119.436,129.764 117.277,128.074 114.943 C 123.718 108.931,124.077 107.588,129.250 110.546 C 134.420 113.502,136.506 113.579,142.141 111.022 C 149.393 107.731,159.646 108.561,164.354 112.820 C 165.693 114.031,168.028 114.500,172.719 114.500 C 179.132 114.500,179.281 114.562,183.060 118.819 C 186.756 122.982,187.053 123.115,191.271 122.482 C 197.004 121.622,202.320 123.836,204.974 128.190 C 208.328 133.690,207.260 134.306,202.671 129.518 C 197.836 124.471,194.749 123.825,188.314 126.513 C 186.323 127.345,184.628 127.908,184.549 127.763 C 184.470 127.618,183.873 126.261,183.223 124.748 C 181.824 121.490,176.532 118.009,172.973 118.004 C 171.582 118.002,169.407 118.727,168.139 119.615 C 165.941 121.155,165.685 121.091,162.666 118.234 C 158.505 114.296,153.059 112.614,147.276 113.481 C 143.516 114.045,141.749 115.121,137.341 119.528 C 132.394 124.476,131.763 124.813,129.158 123.905 C 124.167 122.165,117.765 126.240,116.510 131.956 C 115.905 134.708,115.470 135.000,111.976 135.000 C 107.088 135.000,103.010 138.302,102.713 142.500 L 102.500 145.500 107.582 145.173 C 111.898 144.895,113.141 145.248,115.832 147.512 C 117.574 148.978,119.000 150.743,119.000 151.435 C 119.000 152.269,120.486 152.660,123.419 152.596 C 126.804 152.522,128.442 153.067,130.419 154.924 C 133.931 158.223,133.688 159.568,130.063 156.889 C 127.162 154.743,123.544 154.626,118.750 156.522 C 117.477 157.025,117.000 156.726,117.000 155.421 C 117.000 152.230,112.989 149.000,109.026 149.000 C 107.032 149.000,104.841 149.559,104.158 150.242 C 102.278 152.122,101.033 149.447,101.020 143.500 C 101.007 136.999,103.970 133.015,109.486 132.119 C 112.666 131.602,113.495 130.979,114.122 128.637 C 114.541 127.068,115.634 124.957,116.550 123.945 C 118.117 122.213,118.056 121.957,115.515 119.602 C 114.030 118.225,110.494 116.333,107.658 115.396 C 101.360 113.317,98.000 111.225,98.000 109.385 C 98.000 107.575,97.979 107.570,103.440 110.623 M285.969 112.683 C 284.301 117.860,283.683 118.482,278.762 119.935 C 266.394 123.586,253.958 134.113,250.433 143.916 C 249.428 146.712,248.282 149.000,247.886 149.000 C 246.636 149.000,241.072 141.378,239.019 136.852 C 237.933 134.458,237.034 130.985,237.022 129.133 C 237.002 126.111,237.230 125.834,239.250 126.420 C 240.488 126.779,243.859 127.344,246.742 127.676 C 256.349 128.780,265.966 122.900,269.436 113.801 L 271.076 109.500 276.974 109.836 C 280.218 110.020,283.684 109.716,284.678 109.161 C 287.184 107.758,287.382 108.298,285.969 112.683 M280.063 129.425 C 278.641 131.138,272.528 133.343,270.798 132.766 C 270.147 132.549,272.030 131.167,274.983 129.696 C 280.513 126.940,282.199 126.850,280.063 129.425 M229.704 136.112 C 230.823 142.002,231.617 143.470,240.944 156.900 C 244.661 162.253,244.997 167.463,241.879 171.427 C 240.712 172.910,235.563 177.262,230.437 181.099 C 216.139 191.798,210.282 201.334,211.202 212.417 C 211.442 215.319,212.592 219.619,213.757 221.974 L 215.875 226.254 212.955 223.457 C 209.965 220.592,208.263 216.804,205.482 206.821 C 203.574 199.974,199.297 195.697,189.275 190.614 C 179.903 185.860,175.307 180.890,174.023 174.123 C 173.184 169.697,173.443 164.000,174.484 164.000 C 174.631 164.000,177.295 165.125,180.404 166.500 C 187.802 169.772,193.583 169.772,198.401 166.503 L 202.080 164.006 208.252 166.085 C 218.461 169.524,226.433 166.995,229.650 159.296 C 231.560 154.724,229.957 148.768,226.037 145.869 C 224.449 144.695,222.886 142.683,222.564 141.397 C 222.241 140.111,220.788 137.957,219.335 136.610 L 216.693 134.160 220.596 133.080 C 222.743 132.486,225.175 131.557,226.000 131.016 C 228.351 129.472,228.474 129.640,229.704 136.112 M334.462 167.893 C 331.084 174.099,324.897 180.600,320.710 182.342 C 318.944 183.077,314.238 183.949,310.250 184.281 C 304.455 184.763,303.000 184.606,303.000 183.501 C 303.000 182.740,303.388 181.878,303.863 181.585 C 304.337 181.291,305.299 179.003,306.000 176.500 C 306.701 173.997,307.652 171.715,308.113 171.430 C 308.574 171.145,311.653 171.470,314.954 172.151 C 320.197 173.234,321.402 173.179,324.478 171.712 C 327.268 170.382,328.000 169.451,328.000 167.235 C 328.000 164.845,328.618 164.222,332.250 162.948 C 334.587 162.129,336.646 161.795,336.825 162.205 C 337.004 162.616,335.941 165.176,334.462 167.893 M365.812 164.275 C 366.000 165.241,364.919 166.507,363.112 167.442 C 359.295 169.416,358.923 169.395,359.683 167.250 C 361.323 162.625,365.133 160.776,365.812 164.275 M140.377 166.606 C 143.451 170.459,149.895 173.942,154.015 173.978 C 155.398 173.990,158.152 173.130,160.135 172.068 L 163.741 170.135 164.389 175.654 C 164.746 178.689,165.751 182.553,166.624 184.240 L 168.210 187.307 161.910 186.648 C 150.884 185.496,146.244 182.151,137.182 168.820 C 133.496 163.398,133.398 163.000,135.750 163.000 C 136.713 163.000,138.795 164.623,140.377 166.606 M352.468 167.000 C 355.618 167.000,355.624 167.836,352.518 173.964 C 349.505 179.911,346.734 182.000,341.859 182.000 C 334.917 182.000,334.833 181.685,339.359 172.590 L 343.482 164.303 346.709 165.652 C 348.484 166.393,351.075 167.000,352.468 167.000 M123.530 201.012 C 125.371 201.711,127.344 201.678,129.933 200.902 C 133.015 199.979,134.239 200.072,136.870 201.433 C 140.599 203.361,140.277 204.308,134.972 207.014 C 129.105 210.008,123.735 209.647,119.766 205.994 C 116.595 203.076,116.556 202.945,118.441 201.494 C 120.747 199.720,120.255 199.766,123.530 201.012 M106.137 210.159 C 109.057 211.034,110.625 211.036,112.531 210.168 C 114.464 209.287,115.517 209.306,117.028 210.249 C 118.112 210.927,119.000 211.884,119.000 212.377 C 119.000 213.786,106.701 212.437,103.438 210.670 C 99.917 208.765,100.876 208.583,106.137 210.159 M393.247 211.322 C 397.420 213.435,398.079 213.514,400.570 212.209 C 404.836 209.974,412.445 211.094,415.974 214.475 C 417.558 215.993,419.392 218.532,420.049 220.117 C 420.750 221.810,421.999 223.000,423.074 223.000 C 426.224 223.000,429.732 225.117,430.927 227.739 C 432.471 231.127,431.664 231.662,429.649 228.587 C 428.371 226.637,427.031 226.046,423.347 225.805 C 419.005 225.522,418.585 225.252,417.513 222.055 C 415.113 214.894,407.010 212.123,400.812 216.344 C 397.591 218.538,396.968 218.666,395.885 217.362 C 393.839 214.896,389.324 213.000,385.500 213.000 C 380.034 213.000,376.093 215.535,373.919 220.450 L 372.014 224.757 367.698 223.205 C 363.665 221.755,363.123 221.779,359.441 223.576 C 356.639 224.944,355.231 226.414,354.568 228.661 C 353.873 231.021,352.905 231.969,350.753 232.399 C 349.168 232.716,346.549 234.297,344.935 235.911 C 343.321 237.525,342.000 238.465,342.000 238.000 C 342.000 236.308,347.052 231.204,349.280 230.644 C 350.764 230.272,351.906 228.925,352.533 226.807 C 353.110 224.858,354.911 222.590,357.000 221.179 C 359.976 219.169,361.286 218.906,365.750 219.417 C 368.758 219.761,371.000 219.619,371.000 219.085 C 371.000 217.296,376.425 211.724,379.450 210.407 C 383.959 208.443,388.103 208.718,393.247 211.322 M355.653 249.000 C 359.941 252.765,364.229 252.888,372.500 249.481 C 378.170 247.145,383.000 246.278,383.000 247.596 C 383.000 249.548,378.028 254.493,372.106 258.430 C 368.342 260.932,364.743 263.605,364.108 264.369 C 361.825 267.121,355.055 271.199,351.316 272.076 C 348.905 272.641,344.591 272.557,339.601 271.848 L 331.703 270.726 335.889 267.249 C 340.591 263.343,343.513 258.319,344.494 252.453 C 345.524 246.300,345.737 246.000,349.087 246.000 C 351.160 246.000,353.403 247.025,355.653 249.000 M403.000 253.053 C 400.525 255.236,396.925 257.464,395.000 258.005 C 390.876 259.164,383.681 259.327,384.183 258.250 C 384.375 257.837,385.550 255.865,386.795 253.868 L 389.059 250.235 395.279 250.708 C 398.701 250.968,402.625 250.718,404.000 250.154 C 407.896 248.553,407.805 248.816,403.000 253.053 M222.776 323.750 C 219.511 327.473,217.670 332.801,216.849 340.904 C 215.889 350.372,213.286 355.961,208.038 359.824 C 206.301 361.103,203.365 364.517,201.514 367.411 C 199.662 370.305,196.989 373.432,195.574 374.360 C 193.015 376.037,193.000 376.030,193.000 373.173 C 193.000 369.490,197.175 363.773,204.298 357.704 C 210.258 352.626,211.359 350.255,213.995 336.830 C 214.836 332.546,216.094 330.039,219.139 326.580 C 221.356 324.061,223.426 322.000,223.740 322.000 C 224.053 322.000,223.619 322.788,222.776 323.750 M254.204 344.458 C 255.141 345.690,258.741 347.717,262.204 348.962 C 271.552 352.322,274.798 354.672,278.051 360.437 C 281.701 366.903,284.731 369.796,291.232 373.020 C 297.789 376.272,299.768 379.050,301.532 387.481 C 303.490 396.841,301.701 398.305,299.176 389.409 C 297.316 382.854,294.007 378.993,286.032 374.071 C 279.812 370.232,278.024 368.501,275.327 363.705 C 271.119 356.220,270.672 355.821,261.785 351.603 C 254.286 348.044,251.891 345.770,250.624 341.000 C 250.023 338.738,250.081 338.677,251.230 340.358 C 251.929 341.380,253.267 343.225,254.204 344.458 M191.453 348.077 C 191.087 348.669,187.459 350.756,183.390 352.714 C 175.043 356.731,172.713 359.575,170.922 367.930 C 170.053 371.981,168.657 374.462,164.931 378.576 C 161.518 382.345,159.590 385.602,158.449 389.527 C 157.229 393.723,156.411 395.035,155.163 394.798 C 154.062 394.590,153.400 393.296,153.203 390.974 C 152.946 387.929,153.701 386.545,158.892 380.542 C 163.976 374.662,165.133 372.579,166.571 366.711 C 168.811 357.568,172.031 354.366,183.089 350.282 C 187.715 348.574,191.639 347.136,191.809 347.088 C 191.979 347.040,191.819 347.485,191.453 348.077 M296.320 364.750 C 298.762 366.813,302.390 369.757,304.381 371.293 C 307.638 373.806,307.998 374.556,307.985 378.793 C 307.976 381.382,307.533 384.175,307.000 385.000 C 306.272 386.126,306.026 385.628,306.014 383.000 C 305.988 377.716,303.038 372.851,297.784 369.429 C 292.216 365.801,287.990 361.000,290.367 361.000 C 291.198 361.000,293.877 362.688,296.320 364.750 M185.654 368.000 C 184.880 370.901,184.903 373.168,185.736 376.250 C 186.783 380.122,186.672 380.811,184.489 384.000 C 183.171 385.925,181.391 389.188,180.533 391.250 C 179.675 393.313,178.577 395.000,178.094 395.000 C 175.593 395.000,175.251 385.349,177.592 380.822 C 178.468 379.129,179.842 375.527,180.647 372.817 C 181.864 368.719,184.922 364.000,186.361 364.000 C 186.560 364.000,186.242 365.800,185.654 368.000 M257.802 365.398 C 261.428 367.273,263.701 369.925,264.530 373.250 C 265.397 376.721,264.867 376.693,259.475 372.983 C 255.316 370.121,252.000 366.481,252.000 364.777 C 252.000 363.560,254.835 363.863,257.802 365.398 M143.000 369.795 C 143.000 371.200,133.540 380.410,129.156 383.273 C 126.268 385.158,124.295 387.478,122.990 390.523 C 121.308 394.448,120.689 395.000,117.977 395.000 C 115.762 395.000,115.098 394.645,115.642 393.750 C 124.623 378.988,131.644 370.897,136.500 369.718 C 139.815 368.913,143.000 368.950,143.000 369.795 M217.393 372.431 C 217.729 373.767,219.595 376.549,221.541 378.612 L 225.078 382.363 222.620 384.431 C 221.268 385.569,219.216 388.413,218.061 390.750 C 215.359 396.214,213.000 396.404,213.000 391.159 C 213.000 389.046,212.356 385.178,211.569 382.562 C 209.997 377.340,210.290 375.620,213.323 372.250 C 215.900 369.387,216.638 369.420,217.393 372.431 M144.414 387.500 C 143.612 388.600,142.472 390.738,141.880 392.250 C 141.288 393.762,140.185 395.000,139.427 395.000 C 137.649 395.000,138.521 390.032,141.260 384.564 L 143.230 380.628 144.552 383.064 C 145.663 385.113,145.641 385.818,144.414 387.500 M111.427 386.750 C 109.907 389.363,108.181 392.288,107.591 393.250 C 106.513 395.010,102.000 395.736,102.000 394.150 C 102.000 392.712,107.726 385.305,110.152 383.606 C 113.980 380.925,114.323 381.771,111.427 386.750 M338.902 392.440 C 340.418 393.376,340.281 395.000,338.687 395.000 C 336.066 395.000,332.000 389.528,332.000 386.000 L 332.000 382.608 334.902 387.185 C 336.498 389.702,338.298 392.066,338.902 392.440 M350.455 386.733 C 352.644 388.361,356.000 393.003,356.000 394.404 C 356.000 394.732,354.725 395.000,353.167 395.000 C 350.440 395.000,349.423 394.046,342.582 385.081 C 341.681 383.900,342.050 383.772,344.789 384.314 C 346.598 384.672,349.148 385.761,350.455 386.733 " stroke="none" fill="black" fill-rule="evenodd"/></svg>